<svg width="22" height="22" viewBox="0 0 22 22" fill="none" xmlns="http://www.w3.org/2000/svg">
<rect width="22" height="22" rx="6" fill="#121314"/>
<mask id="mask0_71_490" style="mask-type:luminance" maskUnits="userSpaceOnUse" x="2" y="2" width="18" height="18">
<path d="M20 2H2V20H20V2Z" fill="white"/>
</mask>
<g mask="url(#mask0_71_490)">
<g filter="url(#filter0_d_71_490)">
<path d="M8.17625 16.0624V6.16243C8.17625 5.57442 8.30225 5.05242 8.55425 4.59643C8.81826 4.14043 9.17826 3.78643 9.63425 3.53443C10.1022 3.27043 10.6302 3.13843 11.2182 3.13843C11.6742 3.13843 12.0763 3.22243 12.4242 3.39043C12.7722 3.54643 13.0902 3.76843 13.3782 4.05643L12.5502 4.88443C12.3582 4.69243 12.1542 4.55443 11.9382 4.47043C11.7343 4.37443 11.4942 4.32643 11.2182 4.32643C10.6543 4.32643 10.2162 4.49443 9.90425 4.83043C9.60424 5.15443 9.45425 5.61042 9.45425 6.19843V16.0624H8.17625ZM6.05225 8.73643V7.60243H12.2802V8.73643H6.05225Z" fill="#D6DFE3"/>
</g>
<g filter="url(#filter1_d_71_490)">
<path d="M11.27 18.8749V8.97493C11.27 8.38692 11.396 7.86492 11.648 7.40893C11.912 6.95294 12.272 6.59893 12.728 6.34693C13.196 6.08292 13.724 5.95093 14.312 5.95093C14.768 5.95093 15.17 6.03494 15.518 6.20293C15.866 6.35894 16.184 6.58093 16.472 6.86893L15.644 7.69693C15.452 7.50492 15.248 7.36694 15.032 7.28293C14.828 7.18694 14.588 7.13893 14.312 7.13893C13.748 7.13893 13.31 7.30692 12.998 7.64293C12.698 7.96693 12.548 8.42292 12.548 9.01093V18.8749H11.27ZM9.146 11.5489V10.4149H15.374V11.5489H9.146Z" fill="#D6DFE3"/>
</g>
</g>
<defs>
<filter id="filter0_d_71_490" x="3.05225" y="1.13843" width="15.3259" height="20.924" filterUnits="userSpaceOnUse" color-interpolation-filters="sRGB">
<feFlood flood-opacity="0" result="BackgroundImageFix"/>
<feColorMatrix in="SourceAlpha" type="matrix" values="0 0 0 0 0 0 0 0 0 0 0 0 0 0 0 0 0 0 127 0" result="hardAlpha"/>
<feOffset dx="1" dy="2"/>
<feGaussianBlur stdDeviation="2"/>
<feComposite in2="hardAlpha" operator="out"/>
<feColorMatrix type="matrix" values="0 0 0 0 0 0 0 0 0 0 0 0 0 0 0 0 0 0 0.25 0"/>
<feBlend mode="normal" in2="BackgroundImageFix" result="effect1_dropShadow_71_490"/>
<feBlend mode="normal" in="SourceGraphic" in2="effect1_dropShadow_71_490" result="shape"/>
</filter>
<filter id="filter1_d_71_490" x="6.146" y="3.95093" width="15.3259" height="20.924" filterUnits="userSpaceOnUse" color-interpolation-filters="sRGB">
<feFlood flood-opacity="0" result="BackgroundImageFix"/>
<feColorMatrix in="SourceAlpha" type="matrix" values="0 0 0 0 0 0 0 0 0 0 0 0 0 0 0 0 0 0 127 0" result="hardAlpha"/>
<feOffset dx="1" dy="2"/>
<feGaussianBlur stdDeviation="2"/>
<feComposite in2="hardAlpha" operator="out"/>
<feColorMatrix type="matrix" values="0 0 0 0 0 0 0 0 0 0 0 0 0 0 0 0 0 0 0.25 0"/>
<feBlend mode="normal" in2="BackgroundImageFix" result="effect1_dropShadow_71_490"/>
<feBlend mode="normal" in="SourceGraphic" in2="effect1_dropShadow_71_490" result="shape"/>
</filter>
</defs>
</svg>
