<svg width="105" height="23" viewBox="0 0 105 23" fill="none" xmlns="http://www.w3.org/2000/svg">
<rect width="22" height="22" rx="6" fill="#121314"/>
<mask id="mask0_71_499" style="mask-type:luminance" maskUnits="userSpaceOnUse" x="2" y="2" width="18" height="18">
<path d="M20 2H2V20H20V2Z" fill="white"/>
</mask>
<g mask="url(#mask0_71_499)">
<g filter="url(#filter0_d_71_499)">
<path d="M8.17625 16.0624V6.16243C8.17625 5.57442 8.30225 5.05242 8.55425 4.59643C8.81826 4.14043 9.17826 3.78643 9.63425 3.53443C10.1022 3.27043 10.6302 3.13843 11.2182 3.13843C11.6742 3.13843 12.0763 3.22243 12.4242 3.39043C12.7722 3.54643 13.0902 3.76843 13.3782 4.05643L12.5502 4.88443C12.3582 4.69243 12.1542 4.55443 11.9382 4.47043C11.7343 4.37443 11.4942 4.32643 11.2182 4.32643C10.6543 4.32643 10.2162 4.49443 9.90425 4.83043C9.60424 5.15443 9.45425 5.61042 9.45425 6.19843V16.0624H8.17625ZM6.05225 8.73643V7.60243H12.2802V8.73643H6.05225Z" fill="#D6DFE3"/>
</g>
<g filter="url(#filter1_d_71_499)">
<path d="M11.27 18.8749V8.97493C11.27 8.38692 11.396 7.86492 11.648 7.40893C11.912 6.95294 12.272 6.59893 12.728 6.34693C13.196 6.08292 13.724 5.95093 14.312 5.95093C14.768 5.95093 15.17 6.03494 15.518 6.20293C15.866 6.35894 16.184 6.58093 16.472 6.86893L15.644 7.69693C15.452 7.50492 15.248 7.36694 15.032 7.28293C14.828 7.18694 14.588 7.13893 14.312 7.13893C13.748 7.13893 13.31 7.30692 12.998 7.64293C12.698 7.96693 12.548 8.42292 12.548 9.01093V18.8749H11.27ZM9.146 11.5489V10.4149H15.374V11.5489H9.146Z" fill="#D6DFE3"/>
</g>
</g>
<g filter="url(#filter2_d_71_499)">
<path d="M35.952 16.5V7.94C35.952 7.32133 36.0853 6.77733 36.352 6.308C36.6187 5.828 36.9973 5.44933 37.488 5.172C37.9787 4.89467 38.5547 4.756 39.216 4.756C39.7173 4.756 40.1493 4.84133 40.512 5.012C40.8747 5.18267 41.2 5.41733 41.488 5.716L40.16 7.06C40.0427 6.94267 39.9147 6.852 39.776 6.788C39.6373 6.724 39.4613 6.692 39.248 6.692C38.864 6.692 38.5653 6.79867 38.352 7.012C38.1493 7.21467 38.048 7.508 38.048 7.892V16.5H35.952ZM34.16 10.612V8.772H40.336V10.612H34.16ZM42.1499 16.5V8.772H44.2459V16.5H42.1499ZM44.2459 12.228L43.4299 11.684C43.5259 10.7347 43.8032 9.988 44.2619 9.444C44.7205 8.88933 45.3819 8.612 46.2459 8.612C46.6192 8.612 46.9552 8.676 47.2539 8.804C47.5525 8.92133 47.8245 9.11867 48.0699 9.396L46.7579 10.9C46.6405 10.772 46.4965 10.676 46.3259 10.612C46.1659 10.548 45.9792 10.516 45.7659 10.516C45.3179 10.516 44.9499 10.66 44.6619 10.948C44.3845 11.2253 44.2459 11.652 44.2459 12.228ZM49.6061 16.5V8.772H51.7181V16.5H49.6061ZM50.6621 7.524C50.3208 7.524 50.0381 7.412 49.8141 7.188C49.5901 6.95333 49.4781 6.66533 49.4781 6.324C49.4781 5.99333 49.5901 5.71067 49.8141 5.476C50.0381 5.24133 50.3208 5.124 50.6621 5.124C51.0141 5.124 51.2968 5.24133 51.5101 5.476C51.7341 5.71067 51.8461 5.99333 51.8461 6.324C51.8461 6.66533 51.7341 6.95333 51.5101 7.188C51.2968 7.412 51.0141 7.524 50.6621 7.524ZM55.5109 16.5V5.556H57.6069V16.5H55.5109ZM53.7029 10.612V8.772H59.4149V10.612H53.7029ZM60.6309 15.3L64.7269 9.972H67.2549L63.1589 15.3H60.6309ZM60.6309 16.5V15.3L62.2949 14.676H67.1589V16.5H60.6309ZM60.9189 10.596V8.772H67.2549V9.972L65.5749 10.596H60.9189ZM70.2645 16.5V7.94C70.2645 7.32133 70.3978 6.77733 70.6645 6.308C70.9312 5.828 71.3098 5.44933 71.8005 5.172C72.2912 4.89467 72.8672 4.756 73.5285 4.756C74.0298 4.756 74.4618 4.84133 74.8245 5.012C75.1872 5.18267 75.5125 5.41733 75.8005 5.716L74.4725 7.06C74.3552 6.94267 74.2272 6.852 74.0885 6.788C73.9498 6.724 73.7738 6.692 73.5605 6.692C73.1765 6.692 72.8778 6.79867 72.6645 7.012C72.4618 7.21467 72.3605 7.508 72.3605 7.892V16.5H70.2645ZM68.4725 10.612V8.772H74.6485V10.612H68.4725ZM79.6162 16.66C78.9122 16.66 78.2776 16.484 77.7122 16.132C77.1469 15.78 76.7042 15.3 76.3842 14.692C76.0642 14.084 75.9042 13.4013 75.9042 12.644C75.9042 11.876 76.0642 11.188 76.3842 10.58C76.7042 9.972 77.1469 9.492 77.7122 9.14C78.2776 8.788 78.9122 8.612 79.6162 8.612C80.1709 8.612 80.6669 8.724 81.1042 8.948C81.5416 9.172 81.8882 9.48667 82.1442 9.892C82.4109 10.2867 82.5549 10.7347 82.5762 11.236V14.02C82.5549 14.532 82.4109 14.9853 82.1442 15.38C81.8882 15.7747 81.5416 16.0893 81.1042 16.324C80.6669 16.548 80.1709 16.66 79.6162 16.66ZM80.0002 14.724C80.5869 14.724 81.0616 14.532 81.4242 14.148C81.7869 13.7533 81.9682 13.2467 81.9682 12.628C81.9682 12.2227 81.8829 11.8653 81.7122 11.556C81.5522 11.236 81.3229 10.9907 81.0242 10.82C80.7362 10.6387 80.3949 10.548 80.0002 10.548C79.6162 10.548 79.2749 10.6387 78.9762 10.82C78.6882 10.9907 78.4589 11.236 78.2882 11.556C78.1282 11.8653 78.0482 12.2227 78.0482 12.628C78.0482 13.044 78.1282 13.412 78.2882 13.732C78.4589 14.0413 78.6882 14.2867 78.9762 14.468C79.2749 14.6387 79.6162 14.724 80.0002 14.724ZM81.8562 16.5V14.42L82.1922 12.532L81.8562 10.676V8.772H83.9362V16.5H81.8562ZM90.8785 16.66C90.3238 16.66 89.8225 16.5427 89.3745 16.308C88.9265 16.0733 88.5692 15.7533 88.3025 15.348C88.0358 14.9427 87.8918 14.4893 87.8705 13.988V11.236C87.8918 10.7347 88.0358 10.2867 88.3025 9.892C88.5798 9.48667 88.9425 9.172 89.3905 8.948C89.8385 8.724 90.3345 8.612 90.8785 8.612C91.5932 8.612 92.2332 8.788 92.7985 9.14C93.3638 9.492 93.8065 9.972 94.1265 10.58C94.4572 11.188 94.6225 11.876 94.6225 12.644C94.6225 13.4013 94.4572 14.084 94.1265 14.692C93.8065 15.3 93.3638 15.78 92.7985 16.132C92.2332 16.484 91.5932 16.66 90.8785 16.66ZM86.5905 16.5V4.932H88.6865V10.676L88.3345 12.532L88.6705 14.42V16.5H86.5905ZM90.5265 14.724C90.9105 14.724 91.2465 14.6387 91.5345 14.468C91.8332 14.2867 92.0625 14.0413 92.2225 13.732C92.3932 13.412 92.4785 13.044 92.4785 12.628C92.4785 12.2227 92.3932 11.8653 92.2225 11.556C92.0625 11.236 91.8332 10.9907 91.5345 10.82C91.2358 10.6387 90.8945 10.548 90.5105 10.548C90.1265 10.548 89.7852 10.6387 89.4865 10.82C89.1985 10.9907 88.9692 11.236 88.7985 11.556C88.6385 11.8653 88.5585 12.2227 88.5585 12.628C88.5585 13.044 88.6385 13.412 88.7985 13.732C88.9692 14.0413 89.2038 14.2867 89.5025 14.468C89.8012 14.6387 90.1425 14.724 90.5265 14.724ZM96.7968 16.5V8.772H98.9088V16.5H96.7968ZM97.8528 7.524C97.5114 7.524 97.2288 7.412 97.0048 7.188C96.7808 6.95333 96.6688 6.66533 96.6688 6.324C96.6688 5.99333 96.7808 5.71067 97.0048 5.476C97.2288 5.24133 97.5114 5.124 97.8528 5.124C98.2048 5.124 98.4874 5.24133 98.7008 5.476C98.9248 5.71067 99.0368 5.99333 99.0368 6.324C99.0368 6.66533 98.9248 6.95333 98.7008 7.188C98.4874 7.412 98.2048 7.524 97.8528 7.524Z" fill="#1B1D1E"/>
</g>
<defs>
<filter id="filter0_d_71_499" x="3.05225" y="1.13843" width="15.3259" height="20.924" filterUnits="userSpaceOnUse" color-interpolation-filters="sRGB">
<feFlood flood-opacity="0" result="BackgroundImageFix"/>
<feColorMatrix in="SourceAlpha" type="matrix" values="0 0 0 0 0 0 0 0 0 0 0 0 0 0 0 0 0 0 127 0" result="hardAlpha"/>
<feOffset dx="1" dy="2"/>
<feGaussianBlur stdDeviation="2"/>
<feComposite in2="hardAlpha" operator="out"/>
<feColorMatrix type="matrix" values="0 0 0 0 0 0 0 0 0 0 0 0 0 0 0 0 0 0 0.25 0"/>
<feBlend mode="normal" in2="BackgroundImageFix" result="effect1_dropShadow_71_499"/>
<feBlend mode="normal" in="SourceGraphic" in2="effect1_dropShadow_71_499" result="shape"/>
</filter>
<filter id="filter1_d_71_499" x="6.146" y="3.95093" width="15.3259" height="20.924" filterUnits="userSpaceOnUse" color-interpolation-filters="sRGB">
<feFlood flood-opacity="0" result="BackgroundImageFix"/>
<feColorMatrix in="SourceAlpha" type="matrix" values="0 0 0 0 0 0 0 0 0 0 0 0 0 0 0 0 0 0 127 0" result="hardAlpha"/>
<feOffset dx="1" dy="2"/>
<feGaussianBlur stdDeviation="2"/>
<feComposite in2="hardAlpha" operator="out"/>
<feColorMatrix type="matrix" values="0 0 0 0 0 0 0 0 0 0 0 0 0 0 0 0 0 0 0.25 0"/>
<feBlend mode="normal" in2="BackgroundImageFix" result="effect1_dropShadow_71_499"/>
<feBlend mode="normal" in="SourceGraphic" in2="effect1_dropShadow_71_499" result="shape"/>
</filter>
<filter id="filter2_d_71_499" x="31.1599" y="2.75598" width="72.877" height="19.9041" filterUnits="userSpaceOnUse" color-interpolation-filters="sRGB">
<feFlood flood-opacity="0" result="BackgroundImageFix"/>
<feColorMatrix in="SourceAlpha" type="matrix" values="0 0 0 0 0 0 0 0 0 0 0 0 0 0 0 0 0 0 127 0" result="hardAlpha"/>
<feOffset dx="1" dy="2"/>
<feGaussianBlur stdDeviation="2"/>
<feComposite in2="hardAlpha" operator="out"/>
<feColorMatrix type="matrix" values="0 0 0 0 0 0 0 0 0 0 0 0 0 0 0 0 0 0 0.25 0"/>
<feBlend mode="normal" in2="BackgroundImageFix" result="effect1_dropShadow_71_499"/>
<feBlend mode="normal" in="SourceGraphic" in2="effect1_dropShadow_71_499" result="shape"/>
</filter>
</defs>
</svg>
